<?xml version="1.0" standalone="no"?>
<!DOCTYPE svg PUBLIC "-//W3C//DTD SVG 20010904//EN"
 "http://www.w3.org/TR/2001/REC-SVG-20010904/DTD/svg10.dtd">
<svg version="1.0" xmlns="http://www.w3.org/2000/svg"
 width="512.000000pt" height="512.000000pt" viewBox="0 0 512.000000 512.000000"
 preserveAspectRatio="xMidYMid meet">

<g transform="translate(0.000000,512.000000) scale(0.100000,-0.100000)"
fill="#fff" stroke="none">
<path d="M501 5105 c-177 -39 -347 -171 -429 -335 -77 -153 -72 4 -72 -2210 0
-2214 -5 -2057 72 -2210 73 -145 203 -257 370 -318 l73 -27 2012 -3 c2250 -3
2088 -8 2242 70 149 75 272 221 324 383 l22 70 0 2035 0 2035 -22 70 c-52 163
-175 309 -323 383 -153 77 5 72 -2215 71 -1658 0 -2001 -3 -2054 -14z m4092
-445 c21 -14 50 -43 65 -64 l27 -39 0 -1997 0 -1996 -25 -37 c-14 -21 -43 -50
-64 -65 l-39 -27 -1997 0 -1997 0 -39 27 c-21 15 -50 44 -64 65 l-25 37 -3
1975 c-2 1341 0 1988 7 2012 13 42 71 106 115 125 26 11 369 13 2017 11 l1985
-2 37 -25z"/>
<path d="M939 4263 c-47 -7 -132 -66 -171 -118 -21 -27 -47 -79 -58 -114 -20
-62 -20 -95 -20 -1471 0 -1376 0 -1409 20 -1471 38 -124 144 -221 254 -234 28
-4 193 -5 366 -3 304 3 317 4 361 26 97 48 169 152 189 273 14 91 14 2745 -1
2824 -22 119 -93 221 -188 267 -45 22 -54 23 -386 24 -187 1 -352 0 -366 -3z"/>
</g>
</svg>
