<?xml version="1.0" standalone="no"?>
<!DOCTYPE svg PUBLIC "-//W3C//DTD SVG 20010904//EN"
 "http://www.w3.org/TR/2001/REC-SVG-20010904/DTD/svg10.dtd">
<svg version="1.0" xmlns="http://www.w3.org/2000/svg"
 width="512.000000pt" height="512.000000pt" viewBox="0 0 512.000000 512.000000"
 preserveAspectRatio="xMidYMid meet">

<g transform="translate(0.000000,512.000000) scale(0.100000,-0.100000)"
fill="#fff" stroke="none">
<path d="M415 4306 c-41 -18 -83 -69 -90 -109 -3 -18 -5 -190 -3 -384 3 -339
4 -353 24 -380 73 -98 195 -98 268 0 20 27 21 43 24 297 l3 269 189 3 c173 3
191 5 217 24 98 73 98 195 0 268 -27 20 -42 21 -315 23 -223 2 -294 0 -317
-11z"/>
<path d="M1540 4309 c-14 -6 -36 -20 -48 -32 -78 -72 -68 -185 21 -251 28 -20
39 -21 407 -21 368 0 379 1 407 21 98 73 98 195 0 268 -28 20 -40 21 -395 23
-230 1 -376 -2 -392 -8z"/>
<path d="M2820 4309 c-14 -6 -36 -20 -48 -32 -78 -72 -68 -185 21 -251 28 -20
39 -21 407 -21 368 0 379 1 407 21 98 73 98 195 0 268 -28 20 -40 21 -395 23
-230 1 -376 -2 -392 -8z"/>
<path d="M4100 4309 c-90 -37 -129 -153 -77 -229 48 -72 58 -75 267 -78 l189
-3 3 -269 c3 -254 4 -270 24 -297 73 -98 195 -98 268 0 20 28 21 39 21 407 0
367 -1 379 -21 406 -11 15 -33 37 -48 48 -26 20 -42 21 -314 23 -177 1 -297
-2 -312 -8z"/>
<path d="M400 3018 c-18 -13 -43 -36 -54 -51 -20 -28 -21 -39 -21 -407 0 -368
1 -379 21 -407 73 -98 195 -98 268 0 20 28 21 39 21 407 0 368 -1 379 -21 407
-35 48 -82 73 -134 73 -32 0 -57 -7 -80 -22z"/>
<path d="M4560 3018 c-18 -13 -43 -36 -54 -51 -20 -28 -21 -39 -21 -407 0
-368 1 -379 21 -407 73 -98 195 -98 268 0 20 28 21 39 21 407 0 368 -1 379
-21 407 -35 48 -82 73 -134 73 -32 0 -57 -7 -80 -22z"/>
<path d="M400 1738 c-18 -13 -43 -36 -54 -51 -20 -28 -21 -39 -21 -407 0 -367
1 -379 21 -406 11 -15 33 -37 48 -48 26 -20 40 -21 326 -21 287 0 300 1 327
21 98 73 98 195 0 268 -26 19 -44 21 -217 24 l-189 3 -3 269 c-3 254 -4 270
-24 297 -35 48 -82 73 -134 73 -32 0 -57 -7 -80 -22z"/>
<path d="M4560 1738 c-18 -13 -43 -36 -54 -51 -20 -27 -21 -43 -24 -297 l-3
-269 -189 -3 c-173 -3 -191 -5 -217 -24 -98 -73 -98 -195 0 -268 27 -20 40
-21 327 -21 286 0 300 1 326 21 15 11 37 33 48 48 20 27 21 39 21 406 0 368
-1 379 -21 407 -35 48 -82 73 -134 73 -32 0 -57 -7 -80 -22z"/>
<path d="M1540 1109 c-14 -6 -36 -20 -48 -32 -78 -72 -68 -185 21 -251 28 -20
39 -21 407 -21 368 0 379 1 407 21 98 73 98 195 0 268 -28 20 -40 21 -395 23
-230 1 -376 -2 -392 -8z"/>
<path d="M2820 1109 c-14 -6 -36 -20 -48 -32 -78 -72 -68 -185 21 -251 28 -20
39 -21 407 -21 368 0 379 1 407 21 98 73 98 195 0 268 -28 20 -40 21 -395 23
-230 1 -376 -2 -392 -8z"/>
</g>
</svg>
