<svg xmlns="http://www.w3.org/2000/svg" version="1.1" width="512px" height="512px" style="shape-rendering:geometricPrecision; text-rendering:geometricPrecision; image-rendering:optimizeQuality; fill-rule:evenodd; clip-rule:evenodd" xmlns:xlink="http://www.w3.org/1999/xlink">
<g><path style="opacity:0.997" fill="#fff" d="M 511.5,183.5 C 511.5,242.5 511.5,301.5 511.5,360.5C 508.347,372.485 500.681,379.985 488.5,383C 344.167,383.667 199.833,383.667 55.5,383C 51.462,382.101 47.7954,380.434 44.5,378C 31.3045,364.471 17.8045,351.304 4,338.5C 2.37997,335.107 0.879972,331.774 -0.5,328.5C -0.5,269.167 -0.5,209.833 -0.5,150.5C 2.65262,138.515 10.3193,131.015 22.5,128C 166.833,127.333 311.167,127.333 455.5,128C 459.538,128.899 463.205,130.566 466.5,133C 479.667,146.167 492.833,159.333 506,172.5C 508.326,176.017 510.16,179.683 511.5,183.5 Z M 31.5,159.5 C 170.167,159.5 308.833,159.5 447.5,159.5C 447.5,212.833 447.5,266.167 447.5,319.5C 308.833,319.5 170.167,319.5 31.5,319.5C 31.5,266.167 31.5,212.833 31.5,159.5 Z"/></g>
</svg>
