<?xml version="1.0" standalone="no"?>
<svg version="1.0" xmlns="http://www.w3.org/2000/svg"
 width="512.000000pt" height="512.000000pt" viewBox="0 0 512.000000 512.000000"
 preserveAspectRatio="xMidYMid meet">

<g transform="translate(0.000000,512.000000) scale(0.100000,-0.100000)"
fill="#fff" stroke="none">
<path d="M1509 4917 c-98 -41 -158 -96 -204 -187 -19 -38 -43 -139 -45 -191 0
-4 -91 -9 -202 -12 -223 -5 -275 -15 -393 -71 -190 -90 -328 -254 -391 -461
-17 -57 -19 -147 -21 -1599 -3 -1285 -1 -1553 11 -1621 45 -261 219 -468 476
-562 l75 -28 645 -3 c627 -2 646 -2 677 17 46 29 67 66 67 121 0 55 -21 92
-67 120 -31 19 -55 20 -597 20 -311 0 -594 5 -630 10 -129 18 -247 98 -313
211 -60 102 -57 23 -57 1669 0 1624 -2 1558 51 1662 52 103 180 196 298 218
29 5 125 10 211 10 l158 0 11 -77 c25 -170 128 -287 288 -328 53 -14 156 -15
804 -13 l744 3 57 23 c129 52 226 185 236 322 l5 70 162 0 c89 0 187 -5 216
-10 177 -33 316 -183 339 -366 5 -38 9 -259 10 -492 0 -362 2 -427 15 -453 48
-92 202 -91 250 1 14 27 16 89 13 533 l-3 502 -28 80 c-81 229 -280 414 -507
471 -44 10 -130 17 -266 21 l-201 5 -5 67 c-9 128 -97 253 -216 309 l-57 27
-780 2 -780 3 -56 -23z m1546 -271 c18 -8 38 -23 44 -34 7 -13 11 -101 11
-235 l0 -215 -31 -26 -31 -26 -709 0 c-776 0 -753 -2 -778 58 -9 20 -11 90 -9
230 3 195 4 201 27 226 13 14 33 27 45 29 11 2 331 5 709 6 573 1 693 -1 722
-13z"/>
<path d="M1313 3091 c-87 -54 -83 -199 6 -246 26 -13 128 -15 841 -15 883 0
843 -2 889 56 44 56 36 136 -20 190 l-30 29 -827 3 c-806 2 -828 2 -859 -17z"/>
<path d="M4218 2475 c-145 -37 -128 -22 -866 -758 -463 -463 -689 -695 -703
-723 -29 -60 -102 -493 -96 -566 12 -140 125 -245 265 -247 88 -1 480 67 542
95 48 22 141 111 731 702 663 663 677 679 717 759 52 106 69 198 53 305 -27
193 -158 356 -337 419 -78 27 -228 34 -306 14z m227 -291 c41 -19 90 -67 113
-109 11 -20 17 -54 17 -100 0 -89 -22 -129 -137 -242 l-83 -83 -165 165 -165
165 90 91 c117 118 161 142 247 134 27 -2 64 -12 83 -21z m-458 -576 l163
-163 -456 -456 -457 -457 -193 -38 c-106 -21 -196 -35 -200 -32 -3 4 8 94 26
200 l32 193 456 458 c251 251 459 457 462 457 3 0 78 -73 167 -162z"/>
<path d="M1346 2290 c-120 -37 -129 -206 -14 -266 22 -11 100 -14 405 -14 340
0 381 2 412 18 73 36 98 111 62 184 -40 84 -35 83 -461 85 -206 1 -388 -2
-404 -7z"/>
</g>
</svg>
