<svg xmlns="http://www.w3.org/2000/svg" version="1.1" width="512px" height="512px" style="shape-rendering:geometricPrecision; text-rendering:geometricPrecision; image-rendering:optimizeQuality; fill-rule:evenodd; clip-rule:evenodd" xmlns:xlink="http://www.w3.org/1999/xlink">
<g><path style="opacity:0.993" fill="#fff" d="M 67.5,-0.5 C 192.833,-0.5 318.167,-0.5 443.5,-0.5C 472.757,4.90125 493.59,21.2346 506,48.5C 508.327,54.8282 510.16,61.1616 511.5,67.5C 511.5,157.5 511.5,247.5 511.5,337.5C 506.751,349.045 498.084,353.545 485.5,351C 478.333,349.167 473.833,344.667 472,337.5C 471.667,251.5 471.333,165.5 471,79.5C 469.599,59.1865 459.099,46.3532 439.5,41C 319.523,39.3486 199.523,39.0152 79.5,40C 55.6667,42.5 42.5,55.6667 40,79.5C 39.3333,196.833 39.3333,314.167 40,431.5C 42.5,455.333 55.6667,468.5 79.5,471C 196.833,471.667 314.167,471.667 431.5,471C 449.676,469.502 462.176,460.335 469,443.5C 470.089,436.449 471.423,429.449 473,422.5C 479.453,412.014 488.62,408.847 500.5,413C 505.921,415.708 509.587,419.875 511.5,425.5C 511.5,431.5 511.5,437.5 511.5,443.5C 506.099,472.757 489.765,493.59 462.5,506C 456.172,508.327 449.838,510.16 443.5,511.5C 318.167,511.5 192.833,511.5 67.5,511.5C 38.2429,506.099 17.4096,489.765 5,462.5C 2.6729,456.172 0.839566,449.838 -0.5,443.5C -0.5,318.167 -0.5,192.833 -0.5,67.5C 4.90125,38.2429 21.2346,17.4096 48.5,5C 54.8282,2.6729 61.1616,0.839566 67.5,-0.5 Z M 119.5,195.5 C 210.167,195.5 300.833,195.5 391.5,195.5C 391.5,208.5 391.5,221.5 391.5,234.5C 300.833,234.5 210.167,234.5 119.5,234.5C 119.5,221.5 119.5,208.5 119.5,195.5 Z"/></g>
<g><path style="opacity:0.995" fill="#fff" d="M 93.5,78.5 C 201.501,78.3333 309.501,78.5 417.5,79C 429.174,83.507 433.674,92.007 431,104.5C 429.167,111.667 424.667,116.167 417.5,118C 309.5,118.667 201.5,118.667 93.5,118C 81.8262,113.493 77.3262,104.993 80,92.5C 82.0166,85.3185 86.5166,80.6518 93.5,78.5 Z"/></g>
<g><path style="opacity:0.987" fill="#fff" d="M 110.5,155.5 C 207.167,155.333 303.834,155.5 400.5,156C 416.667,160.167 426.833,170.333 431,186.5C 431.667,205.833 431.667,225.167 431,244.5C 426.833,260.667 416.667,270.833 400.5,275C 303.833,275.667 207.167,275.667 110.5,275C 94.3333,270.833 84.1667,260.667 80,244.5C 79.3333,225.167 79.3333,205.833 80,186.5C 84.3489,170.319 94.5156,159.985 110.5,155.5 Z M 119.5,195.5 C 119.5,208.5 119.5,221.5 119.5,234.5C 210.167,234.5 300.833,234.5 391.5,234.5C 391.5,221.5 391.5,208.5 391.5,195.5C 300.833,195.5 210.167,195.5 119.5,195.5 Z"/></g>
<g><path style="opacity:0.98" fill="#fff" d="M 118.5,311.5 C 132.504,311.333 146.504,311.5 160.5,312C 180.813,313.401 193.647,323.901 199,343.5C 199.667,362.833 199.667,382.167 199,401.5C 194.722,418.112 184.222,428.278 167.5,432C 148.833,432.667 130.167,432.667 111.5,432C 94.7782,428.278 84.2782,418.112 80,401.5C 79.3333,382.167 79.3333,362.833 80,343.5C 85.5816,323.977 98.4149,313.31 118.5,311.5 Z M 119.5,352.5 C 132.833,352.5 146.167,352.5 159.5,352.5C 159.5,365.5 159.5,378.5 159.5,391.5C 146.167,391.5 132.833,391.5 119.5,391.5C 119.5,378.5 119.5,365.5 119.5,352.5 Z"/></g>
<g><path style="opacity:0.991" fill="#fff" d="M 253.5,352.5 C 308.168,352.333 362.834,352.5 417.5,353C 429.174,357.507 433.674,366.007 431,378.5C 429.167,385.667 424.667,390.167 417.5,392C 362.833,392.667 308.167,392.667 253.5,392C 241.826,387.493 237.326,378.993 240,366.5C 242.017,359.318 246.517,354.652 253.5,352.5 Z"/></g>
</svg>
