<svg xmlns="http://www.w3.org/2000/svg" version="1.1" width="512px" height="512px" style="shape-rendering:geometricPrecision; text-rendering:geometricPrecision; image-rendering:optimizeQuality; fill-rule:evenodd; clip-rule:evenodd" xmlns:xlink="http://www.w3.org/1999/xlink">
<g><path style="opacity:0.965" fill="#fff" d="M 270.5,-0.5 C 279.5,-0.5 288.5,-0.5 297.5,-0.5C 348.006,3.76426 398.673,7.93093 449.5,12C 475.991,18.4912 492.491,34.9912 499,61.5C 503.05,112.329 507.217,162.995 511.5,213.5C 511.5,222.5 511.5,231.5 511.5,240.5C 509.004,250.165 504.838,259.165 499,267.5C 421.833,344.667 344.667,421.833 267.5,499C 259.279,505.01 250.279,509.177 240.5,511.5C 233.167,511.5 225.833,511.5 218.5,511.5C 209.299,509.07 200.633,505.237 192.5,500C 132.333,439.833 72.1667,379.667 12,319.5C 5.98958,311.279 1.82292,302.279 -0.5,292.5C -0.5,285.167 -0.5,277.833 -0.5,270.5C 1.82292,260.721 5.98958,251.721 12,243.5C 89.1667,166.333 166.333,89.1667 243.5,12C 251.835,6.16243 260.835,1.99577 270.5,-0.5 Z M 281.5,31.5 C 334.092,35.8918 386.758,40.0585 439.5,44C 455.333,46.5 464.5,55.6667 467,71.5C 470.667,119.167 474.333,166.833 478,214.5C 478.667,221.833 478.667,229.167 478,236.5C 476.861,240.112 475.194,243.446 473,246.5C 397.167,322.333 321.333,398.167 245.5,474C 240.533,476.933 235.199,478.767 229.5,479.5C 223.801,478.767 218.467,476.933 213.5,474C 154.667,415.167 95.8333,356.333 37,297.5C 31,286.833 31,276.167 37,265.5C 113.167,189.333 189.333,113.167 265.5,37C 270.586,34.028 275.919,32.1947 281.5,31.5 Z M 368.5,108.5 C 391.157,107.991 402.324,118.991 402,141.5C 396.793,159.517 384.96,167.017 366.5,164C 354.075,159.064 347.075,149.897 345.5,136.5C 347.39,122.288 355.057,112.955 368.5,108.5 Z"/></g>
<g><path style="opacity:0.964" fill="#fff" d="M 366.5,75.5 C 396.583,73.9467 418.083,86.6134 431,113.5C 442.099,150.127 430.599,176.96 396.5,194C 367.452,203.197 343.285,196.031 324,172.5C 308.448,147.382 309.115,122.716 326,98.5C 336.708,85.7344 350.208,78.0677 366.5,75.5 Z M 368.5,108.5 C 355.057,112.955 347.39,122.288 345.5,136.5C 347.075,149.897 354.075,159.064 366.5,164C 384.96,167.017 396.793,159.517 402,141.5C 402.324,118.991 391.157,107.991 368.5,108.5 Z"/></g>
</svg>
