<svg xmlns="http://www.w3.org/2000/svg" version="1.1" width="512px" height="512px" style="shape-rendering:geometricPrecision; text-rendering:geometricPrecision; image-rendering:optimizeQuality; fill-rule:evenodd; clip-rule:evenodd" xmlns:xlink="http://www.w3.org/1999/xlink">
<g>
<path style="opacity:0.978" fill="#fff" d="M 95.5,47.5 C 185.318,32.4847 222.485,69.8181 207,159.5C 201.167,185.333 185.333,201.167 159.5,207C 138.167,207.667 116.833,207.667 95.5,207C 69.6398,201.14 53.8065,185.307 48,159.5C 47.0528,136.458 47.3861,113.458 49,90.5C 56.4054,67.2561 71.9054,52.9228 95.5,47.5 Z M 105.5,79.5 C 122.209,79.0918 138.876,79.5918 155.5,81C 167.653,85.1251 174.153,93.6251 175,106.5C 175.667,120.5 175.667,134.5 175,148.5C 173.633,164.2 165.133,173.033 149.5,175C 134.833,175.667 120.167,175.667 105.5,175C 89.8666,173.033 81.3666,164.2 80,148.5C 79.112,132.131 79.4453,115.798 81,99.5C 85.0909,87.7201 93.2576,81.0535 105.5,79.5 Z"/>
</g>
<g>
<path style="opacity:0.98" fill="#fff" d="M 270.5,79.5 C 295.836,79.3334 321.169,79.5 346.5,80C 357.09,85.4364 359.924,93.603 355,104.5C 352.736,107.433 349.902,109.6 346.5,111C 321.167,111.667 295.833,111.667 270.5,111C 261.089,105.657 258.255,97.8241 262,87.5C 264.157,84.0241 266.99,81.3575 270.5,79.5 Z"/>
</g>
<g>
<path style="opacity:0.991" fill="#fff" d="M 270.5,143.5 C 331.501,143.333 392.501,143.5 453.5,144C 462.482,148.473 465.649,155.64 463,165.5C 461.167,170 458,173.167 453.5,175C 392.5,175.667 331.5,175.667 270.5,175C 261.089,169.657 258.255,161.824 262,151.5C 264.157,148.024 266.99,145.357 270.5,143.5 Z"/>
</g>
<g>
<path style="opacity:0.978" fill="#fff" d="M 95.5,303.5 C 185.318,288.485 222.485,325.818 207,415.5C 201.167,441.333 185.333,457.167 159.5,463C 138.167,463.667 116.833,463.667 95.5,463C 69.6398,457.14 53.8065,441.307 48,415.5C 47.0528,392.458 47.3861,369.458 49,346.5C 56.4054,323.256 71.9054,308.923 95.5,303.5 Z M 105.5,335.5 C 122.209,335.092 138.876,335.592 155.5,337C 167.653,341.125 174.153,349.625 175,362.5C 175.667,376.5 175.667,390.5 175,404.5C 173.633,420.2 165.133,429.033 149.5,431C 134.833,431.667 120.167,431.667 105.5,431C 89.8666,429.033 81.3666,420.2 80,404.5C 79.112,388.131 79.4453,371.798 81,355.5C 85.0909,343.72 93.2576,337.053 105.5,335.5 Z"/>
</g>
<g>
<path style="opacity:0.98" fill="#fff" d="M 270.5,335.5 C 295.836,335.333 321.169,335.5 346.5,336C 357.09,341.436 359.924,349.603 355,360.5C 352.736,363.433 349.902,365.6 346.5,367C 321.167,367.667 295.833,367.667 270.5,367C 261.089,361.657 258.255,353.824 262,343.5C 264.157,340.024 266.99,337.357 270.5,335.5 Z"/>
</g>
<g>
<path style="opacity:0.991" fill="#fff" d="M 270.5,399.5 C 331.501,399.333 392.501,399.5 453.5,400C 462.482,404.473 465.649,411.64 463,421.5C 461.167,426 458,429.167 453.5,431C 392.5,431.667 331.5,431.667 270.5,431C 261.089,425.657 258.255,417.824 262,407.5C 264.157,404.024 266.99,401.357 270.5,399.5 Z"/>
</g>
</svg>
