<svg xmlns="http://www.w3.org/2000/svg" version="1.1" width="512px" height="512px" style="shape-rendering:geometricPrecision; text-rendering:geometricPrecision; image-rendering:optimizeQuality; fill-rule:evenodd; clip-rule:evenodd" xmlns:xlink="http://www.w3.org/1999/xlink">
<g><path style="opacity:0.988" fill="#fff" d="M 83.5,191.5 C 198.167,191.333 312.834,191.5 427.5,192C 455.307,198.473 472.473,215.64 479,243.5C 482.764,277.486 469.264,301.652 438.5,316C 434.58,317.313 430.58,318.313 426.5,319C 312.5,319.667 198.5,319.667 84.5,319C 50.7042,311.218 33.0375,290.051 31.5,255.5C 33.2053,221.403 50.5386,200.07 83.5,191.5 Z M 95.5,223.5 C 202.167,223.333 308.834,223.5 415.5,224C 438.191,226.874 448.358,239.707 446,262.5C 443.437,273.397 436.937,280.897 426.5,285C 422.886,285.945 419.219,286.612 415.5,287C 308.833,287.667 202.167,287.667 95.5,287C 76.2216,285.222 65.8882,274.722 64.5,255.5C 66.0668,236.267 76.4001,225.601 95.5,223.5 Z"/></g>
<g><path style="opacity:0.986" fill="#fff" d="M 89.5,239.5 C 125.502,239.333 161.502,239.5 197.5,240C 206.482,244.473 209.649,251.64 207,261.5C 205.167,266 202,269.167 197.5,271C 161.5,271.667 125.5,271.667 89.5,271C 82.513,268.193 79.1797,263.027 79.5,255.5C 79.3021,247.885 82.6354,242.551 89.5,239.5 Z"/></g>
</svg>
