<svg xmlns="http://www.w3.org/2000/svg" version="1.1" width="512px" height="512px" style="shape-rendering:geometricPrecision; text-rendering:geometricPrecision; image-rendering:optimizeQuality; fill-rule:evenodd; clip-rule:evenodd" xmlns:xlink="http://www.w3.org/1999/xlink">
<g><path style="opacity:0.96" fill="#fff" d="M 80.5,56.5 C 200.519,56.0191 320.519,56.5191 440.5,58C 471.01,66.5329 485.177,86.6995 483,118.5C 478.399,142.435 464.232,157.268 440.5,163C 317.167,163.667 193.833,163.667 70.5,163C 39.9528,154.422 25.7862,134.256 28,102.5C 34.2195,74.1047 51.7195,58.7714 80.5,56.5 Z M 75.5,88.5 C 195.5,88.3333 315.5,88.5 435.5,89C 452.13,96.031 456.297,107.531 448,123.5C 444.908,127.928 440.741,130.761 435.5,132C 315.5,132.667 195.5,132.667 75.5,132C 59.8371,125.346 55.3371,114.18 62,98.5C 65.5795,93.7307 70.0795,90.3974 75.5,88.5 Z"/></g>
<g><path style="opacity:0.972" fill="#fff" d="M 70.5,202.5 C 193.834,202.333 317.167,202.5 440.5,203C 471.015,211.537 485.181,231.703 483,263.5C 478.399,287.435 464.232,302.268 440.5,308C 317.167,308.667 193.833,308.667 70.5,308C 43.5161,300.867 29.1828,283.367 27.5,255.5C 29.0177,227.325 43.3511,209.659 70.5,202.5 Z M 75.5,233.5 C 195.5,233.333 315.5,233.5 435.5,234C 451.506,240.513 456.006,251.68 449,267.5C 445.586,272.252 441.086,275.419 435.5,277C 315.5,277.667 195.5,277.667 75.5,277C 59.8409,270.36 55.3409,259.193 62,243.5C 65.5795,238.731 70.0795,235.397 75.5,233.5 Z"/></g>
<g><path style="opacity:0.96" fill="#fff" d="M 70.5,347.5 C 193.834,347.333 317.167,347.5 440.5,348C 471.047,356.578 485.214,376.744 483,408.5C 478.362,432.47 464.196,447.304 440.5,453C 378.853,454.148 317.186,454.648 255.5,454.5C 193.814,454.648 132.147,454.148 70.5,453C 43.1573,446.157 28.824,428.657 27.5,400.5C 29.0078,372.334 43.3412,354.667 70.5,347.5 Z M 75.5,378.5 C 195.5,378.333 315.5,378.5 435.5,379C 451.159,385.64 455.659,396.807 449,412.5C 445.586,417.252 441.086,420.419 435.5,422C 315.5,422.667 195.5,422.667 75.5,422C 59.8409,415.36 55.3409,404.193 62,388.5C 65.5795,383.731 70.0795,380.397 75.5,378.5 Z"/></g>
</svg>
