<svg xmlns="http://www.w3.org/2000/svg" version="1.1" width="512px" height="512px" style="shape-rendering:geometricPrecision; text-rendering:geometricPrecision; image-rendering:optimizeQuality; fill-rule:evenodd; clip-rule:evenodd" xmlns:xlink="http://www.w3.org/1999/xlink">
<g><path style="opacity:0.984" fill="#fff" d="M 41.5,79.5 C 61.5028,79.3334 81.5028,79.5 101.5,80C 111.913,85.4684 114.746,93.6351 110,104.5C 107.736,107.433 104.902,109.6 101.5,111C 88.8377,111.5 76.1711,111.667 63.5,111.5C 63.6666,129.503 63.4999,147.503 63,165.5C 57.5316,175.913 49.3649,178.746 38.5,174C 35.5665,171.736 33.3999,168.902 32,165.5C 31.3333,140.167 31.3333,114.833 32,89.5C 34.0223,84.98 37.189,81.6467 41.5,79.5 Z"/></g>
<g><path style="opacity:0.98" fill="#fff" d="M 153.5,79.5 C 178.836,79.3334 204.169,79.5 229.5,80C 239.913,85.4684 242.746,93.6351 238,104.5C 235.736,107.433 232.902,109.6 229.5,111C 204.167,111.667 178.833,111.667 153.5,111C 143.087,105.532 140.254,97.3649 145,86.5C 147.441,83.5464 150.275,81.2131 153.5,79.5 Z"/></g>
<g><path style="opacity:0.98" fill="#fff" d="M 281.5,79.5 C 306.836,79.3334 332.169,79.5 357.5,80C 367.913,85.4684 370.746,93.6351 366,104.5C 363.736,107.433 360.902,109.6 357.5,111C 332.167,111.667 306.833,111.667 281.5,111C 271.087,105.532 268.254,97.3649 273,86.5C 275.441,83.5464 278.275,81.2131 281.5,79.5 Z"/></g>
<g><path style="opacity:0.984" fill="#fff" d="M 409.5,79.5 C 429.503,79.3334 449.503,79.5 469.5,80C 474,81.8333 477.167,85 479,89.5C 479.667,114.833 479.667,140.167 479,165.5C 473.532,175.913 465.365,178.746 454.5,174C 451.567,171.736 449.4,168.902 448,165.5C 447.5,147.503 447.333,129.503 447.5,111.5C 434.829,111.667 422.162,111.5 409.5,111C 399.087,105.532 396.254,97.3649 401,86.5C 403.441,83.5464 406.275,81.2131 409.5,79.5 Z"/></g>
<g><path style="opacity:0.98" fill="#fff" d="M 44.5,206.5 C 53.375,205.685 59.5417,209.352 63,217.5C 63.6667,242.833 63.6667,268.167 63,293.5C 57.5316,303.913 49.3649,306.746 38.5,302C 35.5665,299.736 33.3999,296.902 32,293.5C 31.3333,268.167 31.3333,242.833 32,217.5C 34.5373,211.785 38.7039,208.118 44.5,206.5 Z"/></g>
<g><path style="opacity:0.98" fill="#fff" d="M 460.5,206.5 C 469.375,205.685 475.542,209.352 479,217.5C 479.667,242.833 479.667,268.167 479,293.5C 473.532,303.913 465.365,306.746 454.5,302C 451.567,299.736 449.4,296.902 448,293.5C 447.333,268.167 447.333,242.833 448,217.5C 450.537,211.785 454.704,208.118 460.5,206.5 Z"/></g>
<g><path style="opacity:0.984" fill="#fff" d="M 44.5,334.5 C 53.375,333.685 59.5417,337.352 63,345.5C 63.4999,363.497 63.6666,381.497 63.5,399.5C 76.1711,399.333 88.8377,399.5 101.5,400C 111.217,404.68 114.384,412.18 111,422.5C 108.778,426.388 105.612,429.221 101.5,431C 81.5,431.667 61.5,431.667 41.5,431C 37,429.167 33.8333,426 32,421.5C 31.3333,396.167 31.3333,370.833 32,345.5C 34.5373,339.785 38.7039,336.118 44.5,334.5 Z"/></g>
<g><path style="opacity:0.984" fill="#fff" d="M 460.5,334.5 C 469.375,333.685 475.542,337.352 479,345.5C 479.667,370.833 479.667,396.167 479,421.5C 477.167,426 474,429.167 469.5,431C 449.5,431.667 429.5,431.667 409.5,431C 399.087,425.532 396.254,417.365 401,406.5C 403.264,403.567 406.098,401.4 409.5,400C 422.162,399.5 434.829,399.333 447.5,399.5C 447.333,381.497 447.5,363.497 448,345.5C 450.537,339.785 454.704,336.118 460.5,334.5 Z"/></g>
<g><path style="opacity:0.98" fill="#fff" d="M 153.5,399.5 C 178.836,399.333 204.169,399.5 229.5,400C 239.913,405.468 242.746,413.635 238,424.5C 235.736,427.433 232.902,429.6 229.5,431C 204.167,431.667 178.833,431.667 153.5,431C 143.087,425.532 140.254,417.365 145,406.5C 147.441,403.546 150.275,401.213 153.5,399.5 Z"/></g>
<g><path style="opacity:0.98" fill="#fff" d="M 281.5,399.5 C 306.836,399.333 332.169,399.5 357.5,400C 367.913,405.468 370.746,413.635 366,424.5C 363.736,427.433 360.902,429.6 357.5,431C 332.167,431.667 306.833,431.667 281.5,431C 271.087,425.532 268.254,417.365 273,406.5C 275.441,403.546 278.275,401.213 281.5,399.5 Z"/></g>
</svg>
