<svg version="1.0" xmlns="http://www.w3.org/2000/svg"
 width="512.000000pt" height="512.000000pt" viewBox="0 0 512.000000 512.000000"
 preserveAspectRatio="xMidYMid meet">

<g transform="translate(0.000000,512.000000) scale(0.100000,-0.100000)"
fill="#fff" stroke="none">
<path d="M190 5111 c-69 -21 -130 -73 -166 -141 -17 -31 -19 -64 -22 -258 -3
-182 -1 -231 12 -270 37 -109 129 -172 253 -172 l73 0 0 -1710 0 -1710 -73 0
c-124 0 -216 -63 -253 -172 -13 -39 -15 -88 -12 -270 3 -248 8 -267 80 -334
70 -66 81 -69 326 -72 182 -3 231 -1 270 12 109 37 172 129 172 253 l0 73
1710 0 1710 0 0 -73 c0 -124 63 -216 172 -253 39 -13 88 -15 270 -12 248 3
267 8 334 80 66 70 69 81 72 326 3 182 1 231 -12 270 -37 109 -129 172 -253
172 l-73 0 0 1710 0 1710 73 0 c124 0 216 63 253 172 13 39 15 88 12 270 -3
208 -5 226 -25 264 -31 58 -104 119 -158 133 -70 18 -441 14 -496 -4 -107 -37
-169 -129 -169 -252 l0 -73 -1710 0 -1710 0 0 73 c0 123 -62 215 -169 252 -35
12 -91 15 -255 14 -116 0 -222 -4 -236 -8z m449 -176 c16 -8 31 -22 35 -30 3
-9 6 -106 6 -216 0 -268 19 -249 -249 -249 -110 0 -207 3 -216 6 -38 15 -45
55 -45 254 l0 192 29 29 29 29 192 0 c148 0 197 -3 219 -15z m4282 -14 l29
-29 0 -192 c0 -199 -7 -239 -45 -254 -9 -3 -106 -6 -216 -6 -269 0 -249 -20
-249 253 0 212 2 222 45 245 12 7 93 12 213 12 l194 0 29 -29z m-651 -383 c1
-166 102 -268 268 -268 l72 0 0 -1710 0 -1710 -72 0 c-166 -1 -268 -102 -268
-267 l0 -73 -1710 0 -1710 0 0 73 c0 165 -102 266 -267 267 l-73 0 0 1710 0
1710 73 0 c165 1 267 102 267 268 l0 72 1710 0 1710 0 0 -72z m-3615 -3883
c25 -24 25 -25 25 -224 0 -110 -3 -207 -6 -216 -15 -38 -55 -45 -254 -45
l-192 0 -29 29 -29 29 0 192 c0 194 8 239 42 253 7 3 104 6 216 6 203 1 203 1
227 -24z m4250 19 c38 -15 45 -55 45 -254 l0 -192 -29 -29 -29 -29 -192 0
c-199 0 -239 7 -254 45 -3 9 -6 106 -6 216 0 268 -19 249 249 249 110 0 207
-3 216 -6z"/>
<path d="M1214 4260 c-101 -20 -203 -102 -247 -198 -20 -44 -22 -63 -22 -262
0 -200 2 -218 22 -262 30 -66 105 -143 172 -175 49 -24 68 -28 146 -28 83 0
95 2 153 34 73 40 116 85 149 158 l24 53 305 0 304 0 0 -1064 0 -1064 -168 -4
c-166 -3 -168 -3 -234 -36 -77 -38 -130 -92 -166 -171 -38 -82 -38 -193 0
-272 36 -72 98 -135 168 -168 l55 -26 685 0 685 0 58 29 c70 36 130 99 165
174 22 47 27 71 26 137 0 100 -31 171 -104 239 -87 81 -118 90 -317 94 l-173
4 0 1064 0 1064 304 0 305 0 24 -53 c33 -73 76 -118 149 -158 58 -32 70 -34
153 -34 78 0 97 4 146 28 67 32 142 109 172 175 20 44 22 62 22 262 0 200 -2
218 -22 262 -32 71 -103 141 -176 174 l-62 29 -1330 2 c-731 0 -1349 -3 -1371
-7z m2668 -170 c48 -14 97 -55 114 -97 10 -23 14 -80 14 -193 0 -138 -3 -166
-19 -198 -49 -96 -148 -129 -235 -79 -48 27 -73 66 -86 138 -17 94 5 89 -440
89 l-387 0 -40 -29 c-78 -56 -73 23 -73 -1207 0 -1191 -3 -1131 56 -1186 46
-42 75 -48 245 -48 178 0 208 -7 252 -59 75 -89 50 -208 -54 -261 -37 -19 -61
-20 -669 -20 -695 0 -670 -2 -727 63 -72 82 -41 211 61 258 34 16 67 19 198
19 167 0 197 6 242 48 59 55 56 -5 56 1189 0 1049 -1 1100 -19 1139 -10 23
-34 52 -52 65 l-34 24 -391 3 c-451 3 -430 7 -445 -87 -10 -68 -42 -117 -90
-141 -75 -39 -156 -19 -213 53 l-31 39 -3 166 c-4 185 3 224 47 266 60 58 -5
55 1396 56 858 0 1302 -4 1327 -10z"/>
</g>
</svg>
