<svg version="1.0" xmlns="http://www.w3.org/2000/svg"
 width="512.000000pt" height="512.000000pt" viewBox="0 0 512.000000 512.000000"
 preserveAspectRatio="xMidYMid meet">

<g transform="translate(0.000000,512.000000) scale(0.100000,-0.100000)"
fill="#fff" stroke="none">
<path d="M54 3719 c-11 -6 -28 -23 -37 -39 -16 -26 -17 -118 -17 -1120 0
-1001 1 -1094 17 -1120 9 -16 27 -33 40 -39 34 -16 4972 -16 5006 0 13 6 31
23 40 39 16 26 17 119 17 1120 0 1001 -1 1094 -17 1120 -9 16 -27 33 -40 39
-32 15 -4979 14 -5009 0z m4856 -1159 l0 -960 -2350 0 -2350 0 0 960 0 960
2350 0 2350 0 0 -960z"/>
<path d="M652 3295 c-63 -28 -62 -14 -62 -735 0 -725 -2 -708 65 -736 63 -26
126 7 145 75 13 48 13 1274 0 1322 -19 70 -85 103 -148 74z"/>
</g>
</svg>
