<?xml version="1.0" encoding="UTF-8"?>
<!DOCTYPE svg PUBLIC "-//W3C//DTD SVG 1.1//EN" "http://www.w3.org/Graphics/SVG/1.1/DTD/svg11.dtd">
<svg xmlns="http://www.w3.org/2000/svg" version="1.1" width="512px" height="512px" style="shape-rendering:geometricPrecision; text-rendering:geometricPrecision; image-rendering:optimizeQuality; fill-rule:evenodd; clip-rule:evenodd" xmlns:xlink="http://www.w3.org/1999/xlink">
<g><path style="opacity:0.995" fill="#fff" d="M 85.5,47.5 C 198.834,47.3333 312.167,47.5 425.5,48C 445.333,53.1667 457.833,65.6667 463,85.5C 463.667,198.833 463.667,312.167 463,425.5C 457.833,445.333 445.333,457.833 425.5,463C 312.167,463.667 198.833,463.667 85.5,463C 65.6667,457.833 53.1667,445.333 48,425.5C 47.3333,312.167 47.3333,198.833 48,85.5C 53.3488,65.6518 65.8488,52.9852 85.5,47.5 Z M 95.5,79.5 C 202.167,79.3333 308.834,79.5 415.5,80C 424.667,81.1667 429.833,86.3333 431,95.5C 431.667,202.167 431.667,308.833 431,415.5C 429.833,424.667 424.667,429.833 415.5,431C 308.833,431.667 202.167,431.667 95.5,431C 86.3333,429.833 81.1667,424.667 80,415.5C 79.3333,308.833 79.3333,202.167 80,95.5C 81.3459,86.3224 86.5125,80.9891 95.5,79.5 Z"/></g>
<g><path style="opacity:0.976" fill="#fff" d="M 166.5,153.5 C 225.834,153.333 285.168,153.5 344.5,154C 351.333,155.5 355.5,159.667 357,166.5C 357.667,179.5 357.667,192.5 357,205.5C 352.297,217.961 343.797,221.461 331.5,216C 328.567,213.736 326.4,210.902 325,207.5C 324.5,200.508 324.334,193.508 324.5,186.5C 306.833,186.5 289.167,186.5 271.5,186.5C 271.5,239.5 271.5,292.5 271.5,345.5C 288.081,344.721 294.915,352.388 292,368.5C 290.073,373.428 286.573,376.594 281.5,378C 264.167,378.667 246.833,378.667 229.5,378C 221.887,375.464 217.887,370.131 217.5,362C 219.414,349.522 226.748,344.022 239.5,345.5C 239.5,292.5 239.5,239.5 239.5,186.5C 221.833,186.5 204.167,186.5 186.5,186.5C 186.666,193.508 186.5,200.508 186,207.5C 180.361,218.691 171.861,221.525 160.5,216C 157.193,213.222 155.026,209.722 154,205.5C 153.333,192.5 153.333,179.5 154,166.5C 155.682,159.653 159.849,155.32 166.5,153.5 Z"/></g>
</svg>
