<?xml version="1.0" encoding="UTF-8"?>
<!DOCTYPE svg PUBLIC "-//W3C//DTD SVG 1.1//EN" "http://www.w3.org/Graphics/SVG/1.1/DTD/svg11.dtd">
<svg xmlns="http://www.w3.org/2000/svg" version="1.1" width="512px" height="512px" style="shape-rendering:geometricPrecision; text-rendering:geometricPrecision; image-rendering:optimizeQuality; fill-rule:evenodd; clip-rule:evenodd" xmlns:xlink="http://www.w3.org/1999/xlink">
<g><path style="opacity:0.948" fill="#000000" d="M 219.5,50.5 C 244.003,49.3369 256.003,61.0035 255.5,85.5C 273.66,82.6969 288.993,87.8635 301.5,101C 323.5,101.333 345.5,101.667 367.5,102C 370.196,102.69 372.363,104.19 374,106.5C 374.5,161.832 374.667,217.166 374.5,272.5C 392.503,272.333 410.503,272.5 428.5,273C 429.931,273.465 431.097,274.299 432,275.5C 433.156,295.413 433.656,315.413 433.5,335.5C 433.656,355.587 433.156,375.587 432,395.5C 431.167,396.333 430.333,397.167 429.5,398C 411.17,398.5 392.836,398.667 374.5,398.5C 374.667,417.503 374.5,436.503 374,455.5C 373.167,457.667 371.667,459.167 369.5,460C 273.833,460.667 178.167,460.667 82.5,460C 81.0692,459.535 79.9025,458.701 79,457.5C 77.3374,340.581 77.0041,223.581 78,106.5C 79.6374,104.19 81.804,102.69 84.5,102C 106.5,101.667 128.5,101.333 150.5,101C 162.849,87.605 178.183,82.4383 196.5,85.5C 195.45,67.8966 203.117,56.2299 219.5,50.5 Z M 222.5,68.5 C 229.35,67.672 234.183,70.3386 237,76.5C 237.333,83.5 237.667,90.5 238,97.5C 238.785,99.286 239.951,100.786 241.5,102C 252.069,103.287 262.735,103.954 273.5,104C 281.066,106.062 286.733,110.562 290.5,117.5C 247.5,118.833 204.5,118.833 161.5,117.5C 165.267,110.562 170.934,106.062 178.5,104C 189.265,103.954 199.931,103.287 210.5,102C 212.049,100.786 213.215,99.286 214,97.5C 214.103,89.7559 214.769,82.0892 216,74.5C 218.063,72.2659 220.229,70.2659 222.5,68.5 Z M 95.5,119.5 C 110.833,119.5 126.167,119.5 141.5,119.5C 141.777,122.448 141.444,125.281 140.5,128C 140.956,131.794 142.956,134.461 146.5,136C 199.5,136.667 252.5,136.667 305.5,136C 309.044,134.461 311.044,131.794 311.5,128C 310.556,125.281 310.223,122.448 310.5,119.5C 325.833,119.5 341.167,119.5 356.5,119.5C 356.5,170.5 356.5,221.5 356.5,272.5C 323.165,272.333 289.832,272.5 256.5,273C 254.714,273.785 253.214,274.951 252,276.5C 250.352,315.107 250.018,353.774 251,392.5C 251.685,395.057 253.185,396.891 255.5,398C 262.492,398.5 269.492,398.666 276.5,398.5C 276.334,407.839 276.5,417.173 277,426.5C 278.529,429.934 281.196,431.6 285,431.5C 287.732,431.385 290.232,430.552 292.5,429C 307.167,419 321.833,409 336.5,399C 343.158,398.5 349.825,398.334 356.5,398.5C 356.5,413.167 356.5,427.833 356.5,442.5C 269.5,442.5 182.5,442.5 95.5,442.5C 95.5,334.833 95.5,227.167 95.5,119.5 Z M 131.5,174.5 C 154.833,174.5 178.167,174.5 201.5,174.5C 201.5,198.167 201.5,221.833 201.5,245.5C 178.167,245.5 154.833,245.5 131.5,245.5C 131.5,221.833 131.5,198.167 131.5,174.5 Z M 268.5,290.5 C 317.5,290.5 366.5,290.5 415.5,290.5C 415.5,320.5 415.5,350.5 415.5,380.5C 387.831,380.333 360.165,380.5 332.5,381C 319.861,388.321 307.528,396.155 295.5,404.5C 294.671,399.198 294.171,393.864 294,388.5C 293.335,383.579 290.502,381.079 285.5,381C 279.843,380.501 274.176,380.334 268.5,380.5C 268.5,350.5 268.5,320.5 268.5,290.5 Z"/></g>
<g><path style="opacity:0.947" fill="#000000" d="M 120.5,156.5 C 151.502,156.333 182.502,156.5 213.5,157C 215.624,158.122 217.457,159.622 219,161.5C 219.667,193.5 219.667,225.5 219,257.5C 218.215,259.286 217.049,260.786 215.5,262C 184.215,263.636 152.881,263.97 121.5,263C 118.724,262.934 116.558,261.768 115,259.5C 113.348,227.252 113.015,194.919 114,162.5C 115.436,159.558 117.603,157.558 120.5,156.5 Z M 131.5,174.5 C 131.5,198.167 131.5,221.833 131.5,245.5C 154.833,245.5 178.167,245.5 201.5,245.5C 201.5,221.833 201.5,198.167 201.5,174.5C 178.167,174.5 154.833,174.5 131.5,174.5 Z"/></g>
<g><path style="opacity:0.937" fill="#000000" d="M 242.5,164.5 C 272.169,164.333 301.835,164.5 331.5,165C 338.392,167.807 340.225,172.64 337,179.5C 336.097,180.701 334.931,181.535 333.5,182C 302.5,182.667 271.5,182.667 240.5,182C 233.764,175.31 234.43,169.477 242.5,164.5 Z"/></g>
<g><path style="opacity:0.915" fill="#000000" d="M 182.5,186.5 C 192.802,185.962 196.635,190.629 194,200.5C 183.5,211 173,221.5 162.5,232C 158.833,234 155.167,234 151.5,232C 147.333,227.833 143.167,223.667 139,219.5C 136.078,211.581 138.745,206.914 147,205.5C 151.309,205.797 154.643,207.797 157,211.5C 165.395,202.937 173.895,194.604 182.5,186.5 Z"/></g>
<g><path style="opacity:0.938" fill="#000000" d="M 243.5,200.5 C 272.502,200.333 301.502,200.5 330.5,201C 338.19,203.219 340.356,208.052 337,215.5C 336.097,216.701 334.931,217.535 333.5,218C 302.5,218.667 271.5,218.667 240.5,218C 235.242,213.902 234.409,209.069 238,203.5C 239.876,202.391 241.709,201.391 243.5,200.5 Z"/></g>
<g><path style="opacity:0.938" fill="#000000" d="M 240.5,237.5 C 271.502,237.333 302.502,237.5 333.5,238C 338.609,241.366 339.776,245.866 337,251.5C 335.442,253.768 333.276,254.934 330.5,255C 301.5,255.667 272.5,255.667 243.5,255C 238.543,254.113 235.877,251.113 235.5,246C 236.15,242.528 237.816,239.695 240.5,237.5 Z"/></g>
<g><path style="opacity:0.895" fill="#000000" d="M 295.5,326.5 C 299.182,326.335 302.848,326.501 306.5,327C 312.092,329.402 313.925,333.569 312,339.5C 311.535,340.931 310.701,342.097 309.5,343C 304.618,344.555 299.618,344.888 294.5,344C 289.845,341.103 288.345,336.937 290,331.5C 291.352,329.251 293.185,327.584 295.5,326.5 Z"/></g>
<g><path style="opacity:0.897" fill="#000000" d="M 336.5,326.5 C 341.267,326.191 345.934,326.691 350.5,328C 355.811,334.086 355.145,339.42 348.5,344C 343.245,345.047 338.245,344.547 333.5,342.5C 328.904,336.07 329.904,330.737 336.5,326.5 Z"/></g>
<g><path style="opacity:0.89" fill="#000000" d="M 378.5,326.5 C 382.182,326.335 385.848,326.501 389.5,327C 397.09,332.215 397.423,337.882 390.5,344C 386.167,344.667 381.833,344.667 377.5,344C 372.008,340.858 370.508,336.358 373,330.5C 374.5,328.531 376.333,327.198 378.5,326.5 Z"/></g>
</svg>
