<svg xmlns="http://www.w3.org/2000/svg" version="1.1" width="512px" height="512px" style="shape-rendering:geometricPrecision; text-rendering:geometricPrecision; image-rendering:optimizeQuality; fill-rule:evenodd; clip-rule:evenodd" xmlns:xlink="http://www.w3.org/1999/xlink">
<g><path style="opacity:0.967" fill="#fff" d="M 158.5,68.5 C 225.528,68.0242 292.528,68.5242 359.5,70C 396.184,77.6837 421.684,98.8504 436,133.5C 439.101,141.569 441.101,149.902 442,158.5C 442.667,223.167 442.667,287.833 442,352.5C 435.895,392.266 414.395,420.1 377.5,436C 369.431,439.101 361.098,441.101 352.5,442C 287.833,442.667 223.167,442.667 158.5,442C 118.734,435.895 90.9002,414.395 75,377.5C 71.8994,369.431 69.8994,361.098 69,352.5C 68.3333,287.833 68.3333,223.167 69,158.5C 74.3172,120.686 94.1506,93.5191 128.5,77C 138.276,72.8936 148.276,70.0602 158.5,68.5 Z M 160.5,101.5 C 223.834,101.333 287.168,101.5 350.5,102C 383.121,108.955 402.621,128.788 409,161.5C 409.667,224.167 409.667,286.833 409,349.5C 402.5,382.667 382.667,402.5 349.5,409C 286.833,409.667 224.167,409.667 161.5,409C 128.333,402.5 108.5,382.667 102,349.5C 101.333,286.833 101.333,224.167 102,161.5C 108.56,128.774 128.06,108.774 160.5,101.5 Z"/></g>
</svg>
